<svg width="173" height="51" viewBox="0 0 173 51" fill="none" xmlns="http://www.w3.org/2000/svg">
<path fill-rule="evenodd" clip-rule="evenodd" d="M14.3807 39.3578H14.0421C13.4737 39.3921 12.9175 39.54 12.4055 39.793C11.8935 40.046 11.4357 40.3992 11.0583 40.8324C10.3709 41.6763 9.77457 42.5927 9.27953 43.5658C8.17782 45.4891 6.98431 47.3541 4.01199 47.9893C3.8639 48.0215 3.73434 48.1119 3.65157 48.2407C3.56881 48.3696 3.53954 48.5264 3.57016 48.6771C3.59001 48.7772 3.63545 48.8704 3.70192 48.9471C3.76839 49.0238 3.85356 49.0814 3.94887 49.1142C6.6074 50.0735 9.39277 50.6216 12.2117 50.7402C14.8397 50.7402 17.4276 50.07 18.9481 47.9427C20.4687 50.07 23.0623 50.7635 25.6904 50.7402C28.5099 50.6179 31.2952 50.0658 33.9532 49.1025C34.0249 49.0782 34.0911 49.0397 34.1481 48.9893C34.2051 48.9389 34.2518 48.8775 34.2854 48.8087C34.3189 48.7399 34.3388 48.6651 34.3439 48.5885C34.3489 48.5119 34.339 48.435 34.3147 48.3623C34.2829 48.2663 34.2271 48.1802 34.1526 48.1128C34.0781 48.0453 33.9876 47.9988 33.89 47.9777C30.8948 47.3424 29.7242 45.4774 28.6225 43.5541C28.1268 42.5851 27.5304 41.6726 26.8437 40.8324C26.4654 40.4014 26.0071 40.0503 25.4951 39.7993C24.9832 39.5483 24.4275 39.4023 23.8599 39.3695V39.3695C22.3764 39.249 20.9055 39.7239 19.7629 40.6925C19.4647 40.9528 19.1919 41.2416 18.9481 41.5551C18.7082 41.2402 18.4371 40.9512 18.1391 40.6925C17.0872 39.7986 15.7519 39.3224 14.3807 39.352V39.3578ZM14.3807 40.5235C15.475 40.4876 16.5431 40.868 17.3759 41.59C17.6741 41.8417 17.9366 42.1339 18.1563 42.4584C18.2261 42.5538 18.2875 42.6552 18.3399 42.7615C18.3801 42.8314 18.3916 42.9422 18.3399 42.7615C18.3639 42.9135 18.4462 43.0498 18.5687 43.1404C18.6913 43.231 18.8442 43.2687 18.9941 43.2452C19.1135 43.2259 19.2239 43.1687 19.3094 43.0818C19.3949 42.9949 19.4513 42.8828 19.4703 42.7615C19.4703 42.9188 19.4703 42.8081 19.499 42.7615C19.5514 42.6552 19.6129 42.5538 19.6826 42.4584C19.9023 42.1339 20.1649 41.8417 20.463 41.59C20.9127 41.2019 21.4341 40.9087 21.9967 40.7276C22.5592 40.5465 23.1517 40.481 23.7394 40.5351C24.162 40.5494 24.5769 40.6545 24.9566 40.8433C25.3364 41.0322 25.6725 41.3006 25.9428 41.6308C26.5707 42.4136 27.1186 43.2591 27.5782 44.1544C28.4848 45.7397 29.6381 47.5347 31.8243 48.5488C29.8119 49.1678 27.7287 49.5185 25.6272 49.5921C22.8959 49.5921 20.5605 48.8927 19.4129 46.5789C19.3789 46.5102 19.3318 46.449 19.2743 46.3989C19.2169 46.3487 19.1502 46.3107 19.0782 46.2868C19.0062 46.263 18.9302 46.2539 18.8547 46.26C18.7792 46.2661 18.7057 46.2873 18.6383 46.3225C18.5294 46.3785 18.441 46.4683 18.3858 46.5789C17.2382 48.9102 14.9028 49.6154 12.1715 49.5921C10.07 49.5185 7.98688 49.1678 5.97441 48.5488C8.16061 47.5347 9.31395 45.7397 10.2206 44.1544C10.6801 43.2591 11.2281 42.4136 11.8559 41.6308C12.1262 41.3006 12.4623 41.0322 12.8421 40.8433C13.2219 40.6545 13.6367 40.5494 14.0593 40.5351H14.3405L14.3807 40.5235Z" fill="#4B8D41"/>
<path fill-rule="evenodd" clip-rule="evenodd" d="M8.30406 0.618066C6.20769 0.600971 4.18484 1.40181 2.65283 2.85535C1.12082 4.30889 0.196533 6.30425 0.0706653 8.42975C-0.0552028 10.5553 0.62695 12.6488 1.97638 14.2783C3.32582 15.9079 5.23958 16.9492 7.32285 17.1875V35.0683C7.32285 35.2228 7.38331 35.3711 7.49092 35.4804C7.59852 35.5897 7.74447 35.6511 7.89666 35.6511H30.0111C30.1633 35.6511 30.3093 35.5897 30.4169 35.4804C30.5245 35.3711 30.5849 35.2228 30.5849 35.0683V17.205C31.8458 17.0388 33.0513 16.5767 34.1058 15.8553C35.1603 15.1338 36.035 14.1729 36.6604 13.0485C37.2859 11.9242 37.6449 10.6674 37.7092 9.37762C37.7734 8.08787 37.5411 6.80064 37.0306 5.61792C36.5201 4.43519 35.7454 3.38947 34.768 2.5636C33.7905 1.73772 32.6371 1.15439 31.3992 0.859817C30.1613 0.565243 28.8728 0.567522 27.6359 0.866471C26.399 1.16542 25.2477 1.75283 24.2731 2.58215C22.7752 1.32372 20.8921 0.635207 18.9482 0.635207C17.0042 0.635207 15.1212 1.32372 13.6232 2.58215C12.1319 1.31405 10.249 0.618827 8.30406 0.618066V0.618066ZM8.30406 1.7837C10.1381 1.778 11.9044 2.48727 13.2388 3.76527C13.3452 3.86689 13.4858 3.92348 13.6318 3.92348C13.7779 3.92348 13.9185 3.86689 14.0249 3.76527C15.36 2.49211 17.1226 1.78344 18.9539 1.78344C20.7852 1.78344 22.5478 2.49211 23.8829 3.76527C23.9896 3.86859 24.1314 3.92623 24.2788 3.92623C24.4262 3.92623 24.568 3.86859 24.6747 3.76527C25.492 2.94276 26.4941 2.33472 27.5944 1.99367C28.6948 1.65262 29.8604 1.58882 30.9906 1.80778C32.1207 2.02674 33.1813 2.52188 34.0808 3.25041C34.9803 3.97895 35.6917 4.91898 36.1534 5.98929C36.6152 7.05959 36.8134 8.22799 36.731 9.39354C36.6486 10.5591 36.2881 11.6867 35.6805 12.6791C35.073 13.6714 34.2367 14.4985 33.2439 15.0891C32.2511 15.6796 31.1317 16.0158 29.9824 16.0685C29.8303 16.0685 29.6843 16.1299 29.5767 16.2392C29.4691 16.3485 29.4086 16.4967 29.4086 16.6513V34.4854H24.2042V29.5257C24.2042 29.3711 24.1438 29.2229 24.0361 29.1136C23.9285 29.0043 23.7826 28.9429 23.6304 28.9429C23.4782 28.9429 23.3323 29.0043 23.2247 29.1136C23.1171 29.2229 23.0566 29.3711 23.0566 29.5257V34.5029H19.499V26.7981C19.499 26.6435 19.4386 26.4953 19.3309 26.386C19.2233 26.2767 19.0774 26.2153 18.9252 26.2153C18.773 26.2153 18.6271 26.2767 18.5195 26.386C18.4118 26.4953 18.3514 26.6435 18.3514 26.7981V34.4854H14.8168V29.5257C14.8168 29.3711 14.7563 29.2229 14.6487 29.1136C14.5411 29.0043 14.3951 28.9429 14.2429 28.9429C14.0908 28.9429 13.9448 29.0043 13.8372 29.1136C13.7296 29.2229 13.6691 29.3711 13.6691 29.5257V34.5029H8.47046V16.6688C8.47065 16.5191 8.41415 16.3751 8.31267 16.2666C8.21119 16.1581 8.07251 16.0935 7.92535 16.086C6.05807 16.035 4.28722 15.2326 3.00236 13.8555C1.7175 12.4783 1.02389 10.6391 1.07411 8.7425C1.12433 6.8459 1.91427 5.04725 3.27015 3.74222C4.62603 2.43719 6.43678 1.73269 8.30406 1.7837Z" fill="#4B8D41"/>
<path d="M160.312 13.0707H50.0142C43.2126 13.0707 37.6988 19.6192 37.6988 27.6972C37.6988 35.7752 43.2126 42.3238 50.0142 42.3238H160.312C167.114 42.3238 172.628 35.7752 172.628 27.6972C172.628 19.6192 167.114 13.0707 160.312 13.0707Z" fill="#F7A927"/>
<path d="M52.6009 33.6667C51.8271 33.6739 51.0604 33.5168 50.3498 33.2057C49.6549 32.9079 49.0251 32.4729 48.497 31.926C47.9791 31.3803 47.5646 30.7424 47.2742 30.0442C46.9808 29.2862 46.833 28.4781 46.8388 27.6637C46.8328 26.8553 46.9807 26.0534 47.2742 25.302C47.5615 24.6021 47.9764 23.9636 48.497 23.4201C49.0218 22.8669 49.6523 22.4282 50.3498 22.1311C51.061 21.8104 51.8321 21.6499 52.6101 21.6606C53.2799 21.6472 53.947 21.749 54.5833 21.9617C55.1879 22.1959 55.7487 22.5332 56.2415 22.9591C56.3117 23.0126 56.3741 23.0759 56.4268 23.1472C56.4698 23.2053 56.4984 23.2731 56.5102 23.3448C56.5209 23.4229 56.5209 23.502 56.5102 23.5801C56.5119 23.6702 56.4947 23.7597 56.4595 23.8425C56.4244 23.9252 56.3721 23.9994 56.3064 24.0599C56.1751 24.1906 55.9992 24.2648 55.8154 24.2669C55.6196 24.2734 55.4283 24.2064 55.2781 24.0788C54.9392 23.7715 54.5547 23.5206 54.1386 23.3354C53.6415 23.1473 53.1125 23.0609 52.5823 23.0814C52.0134 23.0755 51.4503 23.1976 50.9334 23.4389C50.4212 23.6805 49.9591 24.019 49.5716 24.4363C49.1728 24.8606 48.8583 25.3589 48.6452 25.9041C48.2009 27.0597 48.2009 28.3429 48.6452 29.4984C48.856 30.0477 49.1707 30.5495 49.5716 30.9757C49.957 31.393 50.4198 31.7288 50.9334 31.9637C51.4658 32.1647 52.0342 32.2481 52.6009 32.2083C53.0921 32.2096 53.5792 32.117 54.0367 31.9354C54.5144 31.7811 54.967 31.556 55.38 31.2674C55.5306 31.1481 55.717 31.085 55.908 31.0886C56.0566 31.1019 56.1966 31.1648 56.3064 31.2674C56.3682 31.3374 56.4156 31.4192 56.4458 31.5081C56.476 31.597 56.4885 31.6911 56.4824 31.7849C56.4829 31.8849 56.464 31.984 56.4268 32.0766C56.3922 32.1811 56.3277 32.2729 56.2415 32.34C55.7337 32.7552 55.1563 33.074 54.537 33.2809C53.9175 33.519 53.263 33.6494 52.6009 33.6667V33.6667ZM56.4824 31.7849L55.0002 31.4838V28.7833H52.9529C52.7529 28.7887 52.558 28.7182 52.4063 28.5858C52.3353 28.5245 52.2784 28.448 52.24 28.3618C52.2016 28.2755 52.1824 28.1817 52.184 28.0871C52.1811 27.9922 52.1996 27.8979 52.2381 27.8115C52.2767 27.725 52.3342 27.6487 52.4063 27.5884C52.558 27.4559 52.7529 27.3855 52.9529 27.3908H55.732C55.8343 27.3864 55.9364 27.4034 56.0319 27.4406C56.1275 27.4778 56.2146 27.5345 56.2878 27.6072C56.4244 27.7657 56.4972 27.9706 56.4916 28.1812L56.4824 31.7849Z" fill="white"/>
<path d="M64.3195 33.6667C63.5024 33.6751 62.6911 33.525 61.9294 33.2244C61.232 32.9402 60.6008 32.5107 60.0767 31.9636C59.5533 31.4242 59.1408 30.7846 58.8631 30.0818C58.5708 29.3041 58.4262 28.4772 58.437 27.6448C58.4248 26.8123 58.5694 25.9851 58.8631 25.2078C59.143 24.5062 59.5552 23.8669 60.0767 23.326C60.6038 22.7848 61.2343 22.359 61.9294 22.0746C63.47 21.4852 65.169 21.4852 66.7095 22.0746C67.4095 22.3588 68.0445 22.7861 68.5752 23.3299C69.1058 23.8738 69.5208 24.5226 69.7944 25.236C70.0881 26.0133 70.2327 26.8405 70.2205 27.673C70.2313 28.5054 70.0867 29.3323 69.7944 30.11C69.519 30.8235 69.1035 31.4726 68.5731 32.0178C68.0428 32.5629 67.4087 32.9927 66.7095 33.2809C65.9444 33.5631 65.1331 33.6941 64.3195 33.6667V33.6667ZM64.3195 32.2459C64.9307 32.2565 65.537 32.1346 66.0981 31.8883C66.6248 31.6737 67.1037 31.3537 67.5062 30.9474C67.9121 30.5289 68.2276 30.029 68.4326 29.4796C68.8648 28.299 68.8648 27 68.4326 25.8194C68.234 25.2723 67.9255 24.7732 67.5268 24.3537C67.1281 23.9341 66.6479 23.6034 66.1166 23.3824C64.9781 22.9182 63.7071 22.9182 62.5686 23.3824C62.0421 23.5922 61.5654 23.9128 61.1698 24.3234C60.7726 24.7489 60.4583 25.2469 60.2434 25.7912C59.8112 26.9717 59.8112 28.2708 60.2434 29.4514C60.4561 29.9968 60.7706 30.4952 61.1698 30.9192C61.5658 31.3293 62.0424 31.6499 62.5686 31.8601C63.1217 32.0998 63.7183 32.2184 64.3195 32.2082V32.2459Z" fill="white"/>
<path d="M77.5018 33.7608C76.6328 33.7777 75.7713 33.5943 74.982 33.2245C74.2859 32.8963 73.6904 32.3825 73.259 31.7378C72.8492 31.0902 72.6365 30.3341 72.6476 29.5643V22.5074C72.6445 22.4028 72.6627 22.2988 72.7009 22.2016C72.7392 22.1045 72.7967 22.0164 72.8699 21.9428C73.0173 21.801 73.2135 21.7234 73.4165 21.7264C73.5193 21.7211 73.622 21.7376 73.7181 21.7749C73.8143 21.8121 73.9018 21.8693 73.975 21.9428C74.0482 22.0162 74.1055 22.1044 74.1433 22.2016C74.1811 22.2988 74.1986 22.403 74.1946 22.5074V29.5643C74.1877 30.0759 74.333 30.5776 74.6115 31.0039C74.9155 31.4171 75.3213 31.7416 75.788 31.9448C76.3268 32.1895 76.9117 32.3115 77.5018 32.3024C78.0741 32.3129 78.6412 32.1906 79.16 31.9448C79.6126 31.7392 80.0028 31.4143 80.2902 31.0039C80.5659 30.5768 80.708 30.0749 80.6978 29.5643V22.5074C80.6947 22.4028 80.7128 22.2988 80.7511 22.2016C80.7893 22.1045 80.8469 22.0164 80.9201 21.9428C81.0709 21.8005 81.2701 21.7229 81.4759 21.7264C81.5767 21.7234 81.677 21.741 81.7709 21.7781C81.8648 21.8153 81.9504 21.8713 82.0225 21.9428C82.1635 22.0955 82.24 22.2981 82.2355 22.5074V29.5643C82.2456 30.3327 82.0365 31.0875 81.6334 31.7378C81.2175 32.3786 80.6379 32.8924 79.9567 33.2245C79.1904 33.5943 78.35 33.778 77.5018 33.7608Z" fill="white"/>
<path d="M85.9503 33.5161C85.8488 33.5191 85.7477 33.5005 85.6536 33.4616C85.5595 33.4228 85.4744 33.3644 85.4037 33.2903C85.3305 33.2167 85.273 33.1286 85.2348 33.0315C85.1965 32.9344 85.1783 32.8303 85.1814 32.7258V22.5074C85.1783 22.4028 85.1965 22.2987 85.2348 22.2016C85.273 22.1045 85.3305 22.0164 85.4037 21.9428C85.4762 21.8718 85.5618 21.816 85.6556 21.7789C85.7495 21.7417 85.8496 21.7239 85.9503 21.7264H88.6275C89.3135 21.7148 89.9915 21.8765 90.6007 22.1969C91.1598 22.4971 91.625 22.9501 91.9439 23.5047C92.2736 24.0949 92.44 24.7646 92.4256 25.443C92.4368 26.0853 92.2699 26.7179 91.9439 27.2684C91.6197 27.8045 91.1544 28.2379 90.6007 28.5198C89.9884 28.8298 89.3115 28.9847 88.6275 28.9715H86.747V32.7352C86.7513 32.839 86.7346 32.9427 86.6979 33.0398C86.6613 33.1369 86.6055 33.2254 86.5339 33.2997C86.4586 33.3776 86.3671 33.4374 86.2662 33.4749C86.1652 33.5123 86.0573 33.5264 85.9503 33.5161V33.5161ZM86.7192 27.5225H88.6275C89.0438 27.532 89.4563 27.4417 89.8318 27.259C90.1661 27.0927 90.4483 26.8353 90.647 26.5157C90.8451 26.1944 90.948 25.8221 90.9435 25.443C90.9502 25.0281 90.8479 24.6189 90.647 24.2575C90.4506 23.9216 90.1691 23.6454 89.8318 23.4577C89.4594 23.2643 89.0457 23.1673 88.6275 23.1754H86.747L86.7192 27.5225ZM92.12 33.5161C91.9873 33.5199 91.8562 33.4873 91.7401 33.422C91.6407 33.3533 91.5608 33.2592 91.5085 33.1492L88.8313 28.7645L90.3321 28.3317L92.7684 32.3211C92.8535 32.4376 92.9054 32.5755 92.9185 32.7199C92.9316 32.8643 92.9053 33.0095 92.8425 33.1398C92.7778 33.2665 92.6767 33.3704 92.5527 33.4376C92.4286 33.5048 92.2874 33.5322 92.1477 33.5161H92.12Z" fill="white"/>
<path d="M95.3715 33.5161C95.1651 33.5161 94.9672 33.4329 94.8213 33.2846C94.6753 33.1364 94.5934 32.9354 94.5934 32.7258V22.5074C94.5903 22.402 94.6094 22.2971 94.6493 22.1998C94.6893 22.1025 94.7491 22.0149 94.825 21.9428C94.8974 21.8718 94.983 21.816 95.0768 21.7789C95.1707 21.7417 95.2708 21.7239 95.3715 21.7264C95.5135 21.7239 95.6533 21.7623 95.7747 21.8373C95.896 21.9122 95.9939 22.0206 96.057 22.1498L100.689 31.6155H100.216L104.746 22.1498C104.81 22.0206 104.907 21.9122 105.029 21.8373C105.15 21.7623 105.29 21.7239 105.432 21.7264C105.635 21.7234 105.831 21.801 105.978 21.9428C106.052 22.0164 106.109 22.1045 106.147 22.2016C106.186 22.2987 106.204 22.4028 106.201 22.5074V32.7258C106.204 32.8312 106.185 32.936 106.145 33.0334C106.105 33.1307 106.045 33.2183 105.969 33.2903C105.899 33.3628 105.816 33.4202 105.723 33.459C105.631 33.4978 105.532 33.5172 105.432 33.5161C105.329 33.5187 105.227 33.5 105.131 33.4612C105.036 33.4224 104.949 33.3643 104.876 33.2904C104.803 33.2165 104.746 33.1283 104.708 33.0313C104.67 32.9342 104.651 32.8303 104.654 32.7258V24.6809L104.95 24.6056L101.059 32.6693C100.993 32.7897 100.896 32.8899 100.779 32.9594C100.662 33.0289 100.528 33.0652 100.392 33.0645C100.24 33.0699 100.09 33.0277 99.9628 32.9435C99.8351 32.8594 99.7361 32.7374 99.6792 32.594L95.8254 24.7562L96.1404 24.6809V32.7258C96.1429 32.8295 96.1248 32.9326 96.0872 33.029C96.0495 33.1254 95.9931 33.2132 95.9214 33.2869C95.8496 33.3607 95.7639 33.419 95.6694 33.4584C95.5749 33.4978 95.4736 33.5174 95.3715 33.5161V33.5161Z" fill="white"/>
<path d="M109.962 33.516C109.86 33.5173 109.758 33.4977 109.664 33.4583C109.57 33.4189 109.484 33.3606 109.412 33.2868C109.34 33.213 109.284 33.1253 109.246 33.0289C109.209 32.9325 109.191 32.8293 109.193 32.7257V22.5073C109.19 22.4027 109.208 22.2986 109.246 22.2015C109.285 22.1044 109.342 22.0163 109.415 21.9427C109.563 21.8009 109.759 21.7233 109.962 21.7263H116.687C116.788 21.7215 116.888 21.7373 116.982 21.7729C117.075 21.8085 117.161 21.8631 117.234 21.9333C117.303 22.0014 117.357 22.0836 117.392 22.1745C117.427 22.2653 117.443 22.3627 117.438 22.4602C117.442 22.5563 117.427 22.6523 117.391 22.7416C117.356 22.8309 117.303 22.9115 117.234 22.9777C117.084 23.1127 116.888 23.1835 116.687 23.1753H110.74V26.8449H115.001C115.205 26.8343 115.405 26.9052 115.557 27.0425C115.625 27.1113 115.678 27.1936 115.713 27.2843C115.748 27.375 115.765 27.4721 115.761 27.5694C115.765 27.6654 115.749 27.7612 115.714 27.8504C115.679 27.9397 115.625 28.0203 115.557 28.0869C115.483 28.1579 115.396 28.2129 115.3 28.2485C115.205 28.284 115.103 28.2995 115.001 28.2939H110.74V32.0576H116.687C116.888 32.0494 117.084 32.1202 117.234 32.2552C117.302 32.32 117.355 32.399 117.39 32.4867C117.426 32.5743 117.442 32.6687 117.438 32.7633C117.443 32.8623 117.428 32.9613 117.393 33.0538C117.358 33.1463 117.304 33.2301 117.234 33.2996C117.161 33.3699 117.075 33.4244 116.982 33.46C116.888 33.4956 116.788 33.5115 116.687 33.5066L109.962 33.516Z" fill="white"/>
<path d="M119.05 23.1755C118.954 23.1792 118.858 23.1628 118.769 23.1271C118.68 23.0915 118.599 23.0375 118.531 22.9685C118.466 22.9 118.415 22.8189 118.382 22.7299C118.348 22.641 118.333 22.5461 118.336 22.451C118.332 22.3548 118.348 22.2588 118.383 22.1691C118.417 22.0794 118.469 21.9979 118.537 21.9298C118.604 21.8617 118.684 21.8085 118.772 21.7735C118.86 21.7385 118.955 21.7225 119.05 21.7265H126.998C127.092 21.7223 127.187 21.7386 127.275 21.7743C127.362 21.81 127.442 21.8642 127.507 21.9335C127.576 21.9997 127.63 22.0803 127.665 22.1696C127.7 22.2589 127.716 22.3549 127.711 22.451C127.714 22.5468 127.697 22.6422 127.662 22.7313C127.627 22.8203 127.575 22.9012 127.508 22.969C127.441 23.0368 127.362 23.0901 127.274 23.1256C127.186 23.1611 127.092 23.1781 126.998 23.1755H119.05ZM123.033 33.5256C122.93 33.5282 122.828 33.5095 122.732 33.4707C122.637 33.4319 122.55 33.3738 122.477 33.2998C122.404 33.2259 122.347 33.1378 122.309 33.0407C122.271 32.9437 122.252 32.8397 122.255 32.7352V21.7265H123.802V32.7258C123.804 32.8295 123.786 32.9326 123.749 33.0291C123.711 33.1255 123.655 33.2132 123.583 33.287C123.511 33.3608 123.425 33.4191 123.331 33.4585C123.236 33.4978 123.135 33.5175 123.033 33.5162V33.5256Z" fill="white"/>
<path d="M134.548 33.5162C134.446 33.5191 134.345 33.5006 134.251 33.4617C134.157 33.4228 134.072 33.3645 134.001 33.2904C133.928 33.2168 133.871 33.1287 133.832 33.0316C133.794 32.9345 133.776 32.8304 133.779 32.7258V22.5074C133.776 22.4029 133.794 22.2988 133.832 22.2017C133.871 22.1045 133.928 22.0164 134.001 21.9429C134.074 21.8718 134.159 21.8161 134.253 21.7789C134.347 21.7418 134.447 21.7239 134.548 21.7265C134.65 21.7211 134.753 21.7375 134.848 21.7749C134.944 21.8122 135.031 21.8696 135.103 21.9432C135.176 22.0168 135.232 22.1051 135.269 22.2023C135.306 22.2995 135.322 22.4034 135.317 22.5074V32.7258C135.321 32.8297 135.304 32.9334 135.268 33.0305C135.231 33.1276 135.175 33.216 135.104 33.2904C135.032 33.3662 134.946 33.4255 134.85 33.4645C134.754 33.5034 134.651 33.5211 134.548 33.5162V33.5162Z" fill="white"/>
<path d="M139.05 33.5162C138.948 33.5192 138.847 33.5006 138.753 33.4617C138.659 33.4228 138.574 33.3645 138.503 33.2904C138.362 33.1378 138.286 32.9351 138.29 32.7258V22.5075C138.286 22.2982 138.362 22.0955 138.503 21.9429C138.576 21.8718 138.662 21.8161 138.755 21.779C138.849 21.7418 138.949 21.724 139.05 21.7265C139.164 21.7243 139.276 21.7486 139.379 21.7975C139.482 21.8465 139.572 21.9187 139.643 22.0088L146.128 30.7687V22.5075C146.124 22.4029 146.143 22.2988 146.181 22.2017C146.219 22.1046 146.277 22.0165 146.35 21.9429C146.497 21.8011 146.693 21.7234 146.896 21.7265C146.999 21.7222 147.101 21.7391 147.196 21.7763C147.292 21.8135 147.379 21.8702 147.452 21.9429C147.587 22.099 147.659 22.3001 147.656 22.5075V32.7258C147.659 32.9332 147.587 33.1343 147.452 33.2904C147.381 33.3662 147.294 33.4256 147.198 33.4645C147.103 33.5035 147 33.5211 146.896 33.5162C146.788 33.5162 146.681 33.4938 146.581 33.4504C146.47 33.4119 146.373 33.3396 146.304 33.2434L139.819 24.4834V32.7258C139.823 32.8297 139.806 32.9334 139.77 33.0305C139.733 33.1276 139.677 33.216 139.606 33.2904C139.534 33.3662 139.448 33.4256 139.352 33.4645C139.256 33.5035 139.153 33.5211 139.05 33.5162Z" fill="white"/>
<path d="M155.827 33.6668C155.053 33.674 154.286 33.5169 153.576 33.2058C152.881 32.908 152.251 32.473 151.723 31.9261C151.205 31.3804 150.79 30.7425 150.5 30.0443C150.207 29.2863 150.059 28.4782 150.065 27.6638C150.059 26.8554 150.206 26.0535 150.5 25.3021C150.787 24.6022 151.202 23.9637 151.723 23.4202C152.249 22.8688 152.879 22.4304 153.576 22.1312C154.287 21.8117 155.058 21.6512 155.836 21.6607C156.506 21.6466 157.173 21.7484 157.809 21.9618C158.414 22.196 158.974 22.5333 159.467 22.9592C159.538 23.0127 159.6 23.076 159.653 23.1474C159.695 23.2072 159.726 23.2741 159.745 23.345C159.751 23.4233 159.751 23.5019 159.745 23.5802C159.748 23.6691 159.731 23.7576 159.696 23.839C159.661 23.9205 159.608 23.9928 159.541 24.0506C159.408 24.1743 159.239 24.2504 159.06 24.2671C158.861 24.2708 158.668 24.2043 158.513 24.0789C158.174 23.7716 157.79 23.5208 157.374 23.3355C156.877 23.1474 156.348 23.0611 155.817 23.0815C155.248 23.0756 154.685 23.1977 154.168 23.4391C153.658 23.683 153.196 24.0212 152.807 24.4364C152.408 24.8607 152.093 25.3591 151.88 25.9043C151.448 27.0622 151.448 28.3406 151.88 29.4986C152.091 30.0478 152.406 30.5497 152.807 30.9758C153.194 31.3911 153.656 31.7266 154.168 31.9638C154.687 32.2008 155.249 32.3227 155.817 32.3213C156.309 32.3226 156.796 32.23 157.253 32.0485C157.72 31.8705 158.16 31.6266 158.559 31.3239C158.709 31.2026 158.896 31.1392 159.087 31.1452C159.254 31.1602 159.409 31.2373 159.523 31.3616C159.585 31.4316 159.632 31.5134 159.662 31.6023C159.693 31.6912 159.705 31.7853 159.699 31.8791C159.699 31.9791 159.68 32.0782 159.643 32.1708C159.599 32.2699 159.536 32.3593 159.458 32.4342C158.941 32.8411 158.362 33.159 157.744 33.3752C157.126 33.581 156.477 33.6796 155.827 33.6668V33.6668Z" fill="white"/>
<path d="M162.459 33.7609C162.188 33.756 161.929 33.6444 161.738 33.4496C161.546 33.2548 161.436 32.9919 161.431 32.7164C161.432 32.5097 161.492 32.3077 161.605 32.1356C161.718 31.9635 161.878 31.829 162.066 31.7487C162.254 31.6685 162.46 31.6461 162.661 31.6843C162.861 31.7225 163.045 31.8197 163.191 31.9637C163.384 32.165 163.491 32.4356 163.488 32.7164C163.488 32.8526 163.462 32.9875 163.411 33.1134C163.361 33.2393 163.286 33.3539 163.191 33.4504C163.097 33.5505 162.983 33.6298 162.857 33.6832C162.731 33.7366 162.596 33.7631 162.459 33.7609V33.7609Z" fill="white"/>
</svg>
