<svg width="91" height="90" viewBox="0 0 91 90" fill="none" xmlns="http://www.w3.org/2000/svg">
<path fill-rule="evenodd" clip-rule="evenodd" d="M78.209 34.778H86.938C88.627 34.778 90 36.151 90.004 37.839V52.159C90.004 53.846 88.63 55.219 86.942 55.219H78.213C77.566 57.33 76.73 59.357 75.721 61.261L81.887 67.427C83.081 68.621 83.081 70.562 81.887 71.755L71.76 81.882C71.181 82.461 70.413 82.779 69.596 82.779C68.778 82.779 68.01 82.461 67.431 81.882L61.265 75.716C59.36 76.725 57.334 77.561 55.223 78.208V86.937C55.223 88.626 53.85 89.999 52.163 89.999H37.842C36.155 89.999 34.782 88.625 34.782 86.937V78.208C32.672 77.562 30.646 76.726 28.74 75.716L22.574 81.882C21.994 82.46 21.226 82.779 20.409 82.779C19.591 82.779 18.823 82.461 18.244 81.883L8.118 71.756C6.924 70.563 6.924 68.622 8.118 67.428L14.283 61.262C13.275 59.356 12.439 57.33 11.791 55.22H3.062C1.373 55.22 0 53.846 0 52.158V37.839C0 36.152 1.373 34.78 3.062 34.78H11.791C12.437 32.67 13.273 30.644 14.283 28.738L8.117 22.572C6.924 21.378 6.924 19.436 8.116 18.243L18.241 8.117C18.82 7.538 19.589 7.22 20.406 7.22C21.223 7.22 21.992 7.538 22.571 8.116L28.737 14.283C30.643 13.273 32.67 12.437 34.779 11.791V3.062C34.779 1.373 36.152 0 37.839 0H52.161C53.848 0 55.22 1.373 55.219 3.062V11.791C57.329 12.438 59.355 13.274 61.259 14.282L67.425 8.117C68.004 7.538 68.773 7.22 69.59 7.22C70.407 7.22 71.176 7.538 71.754 8.117L81.883 18.244C83.077 19.437 83.077 21.378 81.883 22.572L75.717 28.738C76.727 30.645 77.563 32.671 78.209 34.778ZM86.939 53.191C87.508 53.191 87.97 52.729 87.97 52.161V37.84C87.97 37.27 87.508 36.808 86.939 36.808H77.451C76.996 36.808 76.598 36.507 76.474 36.07C75.773 33.595 74.799 31.235 73.578 29.053C73.355 28.657 73.424 28.161 73.745 27.84L80.448 21.137C80.85 20.735 80.85 20.082 80.448 19.68L70.319 9.553C69.929 9.164 69.252 9.165 68.862 9.553L62.159 16.255C61.837 16.577 61.342 16.645 60.946 16.423C58.767 15.203 56.406 14.229 53.929 13.527C53.492 13.403 53.191 13.004 53.191 12.55V3.062C53.191 2.493 52.729 2.031 52.161 2.031H37.84C37.272 2.031 36.81 2.493 36.81 3.062V12.549C36.81 13.004 36.509 13.402 36.071 13.526C33.595 14.227 31.233 15.202 29.053 16.422C28.658 16.645 28.163 16.578 27.84 16.255L21.137 9.552C20.747 9.163 20.069 9.163 19.679 9.553L9.553 19.678C9.151 20.079 9.151 20.734 9.554 21.136L16.256 27.839C16.576 28.16 16.645 28.656 16.423 29.052C15.203 31.232 14.228 33.594 13.527 36.07C13.403 36.508 13.004 36.809 12.55 36.809H3.062C2.493 36.809 2.031 37.271 2.031 37.839V52.158C2.031 52.727 2.493 53.19 3.062 53.19H12.548C13.002 53.19 13.4 53.491 13.525 53.927C14.229 56.406 15.203 58.768 16.422 60.947C16.644 61.343 16.575 61.839 16.254 62.16L9.552 68.863C9.15 69.265 9.15 69.918 9.552 70.32L19.678 80.446C20.068 80.835 20.746 80.837 21.136 80.446L27.839 73.744C28.035 73.549 28.294 73.447 28.557 73.447C28.726 73.447 28.897 73.49 29.052 73.577C31.232 74.797 33.594 75.772 36.07 76.473C36.508 76.597 36.809 76.996 36.809 77.45V86.939C36.809 87.508 37.271 87.97 37.839 87.97H52.16C52.728 87.97 53.19 87.508 53.19 86.939V77.451C53.19 76.996 53.491 76.598 53.928 76.474C56.407 75.772 58.769 74.798 60.947 73.578C61.342 73.356 61.838 73.423 62.16 73.745L68.863 80.448C69.253 80.837 69.93 80.837 70.32 80.448L80.447 70.321C80.849 69.919 80.849 69.266 80.447 68.864L73.744 62.161C73.424 61.84 73.355 61.344 73.577 60.948C74.796 58.769 75.77 56.408 76.473 53.929C76.597 53.492 76.996 53.191 77.45 53.191H86.939ZM25.572 45C25.572 34.287 34.287 25.572 45 25.572C55.713 25.572 64.428 34.287 64.428 45C64.428 55.713 55.713 64.428 45 64.428C34.287 64.428 25.572 55.713 25.572 45ZM27.602 45C27.602 54.593 35.407 62.398 45 62.398C54.593 62.398 62.398 54.593 62.398 45C62.398 35.407 54.593 27.602 45 27.602C35.407 27.602 27.602 35.407 27.602 45Z" fill="white"/>
</svg>
