<svg width="101" height="72" viewBox="0 0 101 72" fill="none" xmlns="http://www.w3.org/2000/svg">
<path d="M26.4969 58.3072C24.3572 59.1428 22.0271 59.6127 19.5888 59.6127C9.04509 59.6099 0.50274 51.0648 0.5 40.5225C0.50274 29.9802 9.04509 21.4365 19.5888 21.4365C22.56 21.4365 25.3695 22.1255 27.8722 23.3392C29.4667 10.3709 40.4912 0.328545 53.8924 0.325806C66.6744 0.328545 77.2948 9.46678 79.6345 21.5652C80.34 21.4817 81.0592 21.4365 81.7893 21.4365V22.8063V24.1762C80.7592 24.1762 79.7523 24.2803 78.7647 24.4734C78.3934 24.5447 78.0154 24.4625 77.7099 24.2419C77.4003 24.0241 77.1976 23.6912 77.1469 23.3173C75.5565 11.8804 65.7635 3.06686 53.891 3.0696C41.2296 3.06686 30.9338 13.0873 30.4325 25.6282C30.4105 26.1145 30.1325 26.5597 29.6969 26.7857C29.264 27.0131 28.7407 26.9898 28.327 26.7296C25.7887 25.12 22.8052 24.1775 19.586 24.1775C10.5588 24.1912 3.2575 31.4952 3.24106 40.5225C3.2575 49.5553 10.5588 56.8552 19.5888 56.873C22.2449 56.873 24.7367 56.225 26.9599 55.1018C27.364 54.8963 27.8435 54.9031 28.2421 55.1251C28.638 55.3429 28.901 55.7415 28.9434 56.1935C29.6188 63.3373 35.6365 68.9372 42.9624 68.9372C47.9911 68.9372 52.3897 66.2893 54.8883 62.3154C55.0869 61.9989 55.4034 61.7784 55.7664 61.7058C56.128 61.625 56.5047 61.6989 56.8157 61.9058C58.4622 63.0112 60.4321 63.6564 62.5663 63.6564C67.5676 63.6619 71.7333 60.0894 72.673 55.3675C72.7593 54.9483 73.036 54.5894 73.4182 54.4031C73.799 54.2155 74.251 54.2182 74.6346 54.4086C76.799 55.4949 79.2167 56.1168 81.792 56.1168C90.6084 56.1004 97.7425 48.9662 97.7589 40.1485C97.7425 31.3254 90.6084 24.1912 81.7893 24.1748V22.8049V21.4351C92.122 21.4351 100.497 29.8117 100.5 40.1472C100.497 50.4799 92.122 58.8524 81.7893 58.8551C79.3619 58.8551 77.0455 58.3798 74.9223 57.5373C73.1743 62.6893 68.3046 66.392 62.5649 66.3948C60.3595 66.3948 58.2759 65.8441 56.4527 64.877C53.3897 68.992 48.4911 71.6728 42.9624 71.6728C34.853 71.6714 28.0928 65.9413 26.4969 58.3072Z" fill="white"/>
</svg>
