<svg width="94" height="85" viewBox="0 0 94 85" fill="none" xmlns="http://www.w3.org/2000/svg">
<path d="M47.0781 84.168C46.7461 84.168 46.3945 84.0508 46.1406 83.7969L46.1016 83.7578C35.0469 73.7383 23.6016 63.3867 15.1055 53.1328C5.45703 41.4727 0.75 31.1992 0.75 21.7461C0.769531 9.77344 11.4727 0.0078125 24.6367 0.0078125C36.082 0.0078125 41.9609 5.24219 47.0977 13.8359C52.2148 5.24219 58.0937 0.0078125 69.5586 0.0078125C82.7227 0.0078125 93.4258 9.75391 93.4258 21.7461C93.4258 31.2188 88.7188 41.4922 79.0703 53.1523C70.5742 63.4062 59.1094 73.7773 48.0352 83.7969C47.7617 84.0508 47.4297 84.168 47.0781 84.168ZM24.6367 2.82031C13.0156 2.82031 3.58203 11.3164 3.58203 21.7461C3.58203 30.5156 8.05469 40.2031 17.293 51.3359C25.3984 61.1406 36.375 71.1602 47.0781 80.8672C57.7812 71.1602 68.7578 61.1602 76.8828 51.3555C86.1211 40.2227 90.5938 30.5352 90.5938 21.7461C90.5938 11.3164 81.1406 2.82031 69.5391 2.82031C58.4844 2.82031 53.3867 8.15234 48.3086 17.3516C48.0547 17.8008 47.5859 18.0742 47.0781 18.0742C46.5703 18.0742 46.1016 17.8008 45.8477 17.3516C40.7695 8.15234 35.6719 2.82031 24.6367 2.82031Z" fill="white"/>
</svg>
